<svg xmlns="http://www.w3.org/2000/svg" width="48" height="48" viewBox="0 0 48 48"><rect width="100%" height="100%" fill="#374151"/><path fill="#FFFFFF" d="m20.07 20.435-1.56-.28q.18-1.24.69-2.19.52-.94 1.29-1.57.78-.63 1.78-.95 1-.31 2.15-.31 1.2 0 2.17.34.96.34 1.65.95.68.6 1.05 1.42.36.81.36 1.76 0 .83-.18 1.46-.19.63-.54 1.1-.34.47-.86.79t-1.16.54q1.56.49 2.32 1.5.77 1.01.77 2.53 0 1.3-.48 2.29-.48 1-1.29 1.68-.82.68-1.89 1.02-1.08.35-2.28.35-1.31 0-2.28-.3t-1.69-.89q-.72-.58-1.22-1.44-.51-.85-.87-1.96l1.31-.54q.52-.22.97-.12t.65.49q.22.42.47.83.26.4.62.72t.85.52q.48.2 1.16.2.75 0 1.32-.25.56-.25.94-.64.38-.4.56-.88.19-.49.19-.98 0-.63-.13-1.14-.14-.51-.56-.87t-1.2-.56q-.79-.2-2.11-.2v-2.12q1.09-.01 1.81-.2t1.15-.53q.43-.35.59-.83.17-.48.17-1.05 0-1.23-.68-1.86-.69-.64-1.83-.64-.52 0-.97.15-.44.15-.8.42-.35.27-.59.63t-.36.79q-.2.56-.53.74t-.93.08"/></svg>