<svg xmlns="http://www.w3.org/2000/svg" width="48" height="48" viewBox="0 0 48 48"><rect width="100%" height="100%" fill="#374151"/><path fill="#FFFFFF" d="m22.665 17.92-.61 3.61q.58-.12 1.11-.18.52-.05 1.02-.05 1.36 0 2.41.41 1.04.41 1.75 1.13t1.07 1.68q.36.97.36 2.08 0 1.38-.49 2.52-.48 1.14-1.35 1.95-.86.81-2.04 1.26-1.19.44-2.58.44-.81 0-1.55-.17-.73-.16-1.37-.45-.64-.28-1.19-.64-.54-.37-.98-.78l.92-1.26q.28-.41.75-.41.3 0 .61.2.32.19.72.42.4.22.95.42.54.19 1.31.19.82 0 1.44-.27.62-.26 1.04-.73.41-.48.62-1.13.21-.66.21-1.42 0-1.42-.82-2.22t-2.43-.8q-1.24 0-2.53.46l-1.85-.53 1.44-8.42h8.57v1.26q0 .63-.4 1.03-.39.4-1.34.4z"/></svg>