<svg xmlns="http://www.w3.org/2000/svg" width="48" height="48" viewBox="0 0 48 48"><rect width="100%" height="100%" fill="#374151"/><path fill="#FFFFFF" d="M21.12 20.63q0 1.45.75 2.21t2.13.76q.72 0 1.28-.23.57-.22.95-.62.39-.4.58-.94.2-.54.2-1.16 0-.71-.21-1.27-.22-.55-.62-.94-.39-.38-.94-.59-.54-.2-1.19-.2-.67 0-1.21.22t-.93.62q-.38.4-.59.94-.2.55-.2 1.2m-1.45 12.14 5.39-6.73q.2-.25.38-.49t.35-.48q-.6.38-1.32.58t-1.51.2q-.9 0-1.77-.32-.86-.31-1.53-.94-.68-.63-1.09-1.56t-.41-2.18q0-1.16.43-2.18t1.21-1.79 1.87-1.21 2.41-.44q1.34 0 2.4.42t1.81 1.17q.75.76 1.15 1.81.4 1.06.4 2.32 0 .8-.13 1.52-.14.72-.39 1.39-.26.67-.62 1.3-.36.64-.8 1.26l-3.97 5.67q-.21.28-.61.48-.41.2-.93.2z"/></svg>