<svg xmlns="http://www.w3.org/2000/svg" width="48" height="48" viewBox="0 0 48 48"><rect width="100%" height="100%" fill="#FFFFFF"/><path fill="#808080" d="M30.36 23.995q0 2.27-.49 3.95-.48 1.67-1.34 2.76t-2.03 1.63q-1.17.53-2.52.53-1.36 0-2.52-.53-1.16-.54-2.01-1.63t-1.33-2.76q-.48-1.68-.48-3.95 0-2.28.48-3.94.48-1.67 1.33-2.76.85-1.1 2.01-1.63t2.52-.53q1.35 0 2.52.53t2.03 1.63q.86 1.09 1.34 2.76.49 1.66.49 3.94m-3.06 0q0-1.88-.28-3.12-.27-1.23-.73-1.96-.47-.74-1.07-1.03t-1.24-.29-1.23.29q-.6.29-1.05 1.03-.46.73-.73 1.96-.27 1.24-.27 3.12 0 1.89.27 3.12.27 1.24.73 1.97.45.73 1.05 1.03.59.29 1.23.29t1.24-.29q.6-.3 1.07-1.03.46-.73.73-1.97.28-1.23.28-3.12"/></svg>