<svg xmlns="http://www.w3.org/2000/svg" width="48" height="48" viewBox="0 0 48 48"><rect width="100%" height="100%" fill="#FFFFFF"/><path fill="#808080" d="M24.455 30.01h4.45q.48 0 .76.27.29.27.29.71v1.78h-11.91v-.98q0-.3.13-.63.12-.33.4-.6l5.27-5.28q.66-.67 1.18-1.28t.87-1.21.53-1.22q.19-.62.19-1.3 0-.63-.18-1.1-.18-.48-.51-.8t-.79-.49q-.46-.16-1.04-.16-.53 0-.98.15t-.8.42q-.34.27-.58.63t-.36.79q-.21.56-.53.74-.33.18-.94.08l-1.56-.28q.18-1.24.7-2.19.51-.94 1.29-1.57.77-.63 1.77-.95 1.01-.31 2.16-.31 1.2 0 2.19.35 1 .35 1.71 1t1.1 1.56q.4.91.4 2.03 0 .96-.28 1.78-.29.81-.76 1.56-.47.74-1.11 1.44-.64.69-1.33 1.41l-3.91 4q.56-.17 1.12-.26t1.06-.09"/></svg>