<svg xmlns="http://www.w3.org/2000/svg" width="48" height="48" viewBox="0 0 48 48"><rect width="100%" height="100%" fill="#FFFFFF"/><path fill="#808080" d="M24 30.555q.73 0 1.28-.21.56-.21.93-.59.38-.37.57-.88.2-.52.2-1.12 0-1.43-.8-2.16-.79-.73-2.18-.73t-2.18.73q-.8.73-.8 2.16 0 .6.2 1.12.19.51.57.88.37.38.93.59.55.21 1.28.21m0-13.19q-.66 0-1.14.2-.48.21-.8.55t-.47.78q-.15.45-.15.94 0 .52.13 1 .13.49.43.87.3.37.79.6t1.21.23 1.21-.23.79-.6q.3-.38.43-.87.13-.48.13-1 0-.49-.16-.94-.16-.44-.47-.78t-.79-.55q-.48-.2-1.14-.2m2.93 6.26q1.58.52 2.34 1.58.75 1.06.75 2.6 0 1.15-.43 2.09-.44.93-1.23 1.59-.8.66-1.91 1.02t-2.45.36-2.45-.36-1.91-1.02q-.79-.66-1.23-1.59-.43-.94-.43-2.09 0-1.54.75-2.6.76-1.06 2.34-1.58-1.26-.53-1.89-1.5t-.63-2.34q0-.98.4-1.83.41-.86 1.13-1.49t1.72-.98 2.2-.35 2.2.35 1.72.98 1.13 1.49q.4.85.4 1.83 0 1.37-.63 2.34t-1.89 1.5"/></svg>